<svg xmlns:xlink="http://www.w3.org/1999/xlink" xmlns="http://www.w3.org/2000/svg" width="256"  height="31" ><symbol id="svg-logo-old" viewBox="0 0 256 31"><title>First Midwest Bank</title><desc>First Midwest Bank logo</desc><path fill-rule="evenodd" clip-rule="evenodd" d="M10.22 16.383H.746L2.14 17.79h8.081v-1.408m-.001-2.49H1.606L0 15.464h10.22v-1.572m0-2.49H4.07l-1.606 1.625h7.757v-1.625m-.001-6.224l-5.296 5.357h5.296V5.178m.856 12.614h1.5v-1.408h-1.5v1.408zm0-2.328h1.5v-1.571h-1.5v1.571zm.927-12.092v7.163h.572v-7.74l-.572.577m6.939 9.06v.595h8.723l-.59-.595h-8.133m0 4.818v.541h9.046l.482-.54h-9.528M16 16.383v1.408h1.284v-.54h-.401l-.884-.868m-2.567 1.409h1.631v-1.408h-1.63v1.408zm5.51-2.905v.577h11.184l-.624-.577h-10.56m-2.212.577h.554v-.577h-.553v.577zm-3.299-1.652v1.653h1.632v-.58h-.587l-1.045-1.073m3.299-.786h.554v-.594h-.553v.594zm-5.654-1.624v1.625h1.5v-.595h-.482l-1.018-1.03m3.417 1.624h.57v-.594h-.57v.594zm4.449-8.824v6.333h6.261l-6.26-6.333M16.73 1.964v8.57h.554v-8.01l-.553-.559M10.22 18.658H2.995L4.6 20.283l5.62.01v-1.635m2.355 0h-1.499v1.637h1.5v-1.637m2.487 0h-1.63v1.637l1.63.006v-1.643m2.221 0h-1.285v1.643h1.285v-1.643m.856-.109v1.756l2.354.002v5.065l5.782-5.847h-7.199l-.938-.976m-5.564 2.599h-1.499v5.686l1.5 1.518v-7.204m2.487 0h-1.63v8.07l1.63 1.652v-9.722m2.221 0h-1.285v8.773l1.285-1.3v-7.473" fill="#60256F"></path><path fill-rule="evenodd" clip-rule="evenodd" d="M18.14 21.148v6.608l1.499-1.515v-5.093h-1.5m-7.919 0H5.457l4.763 4.822v-4.822M15.063.277l-.57.685v9.573h.57V.277m6.972 28.438v-.583h.388c.198 0 .408.043.408.277 0 .29-.214.306-.456.306h-.34zm0 .244h.327l.495.819h.316l-.532-.833c.276-.035.485-.18.485-.52 0-.371-.217-.535-.66-.535h-.713v1.888h.282v-.82zm.344 1.508c.881 0 1.636-.69 1.636-1.639 0-.938-.755-1.636-1.636-1.636-.89 0-1.642.698-1.642 1.636 0 .95.752 1.639 1.642 1.639zm-1.315-1.639c0-.774.573-1.365 1.315-1.365.734 0 1.308.59 1.308 1.365 0 .789-.574 1.37-1.308 1.37-.742 0-1.315-.581-1.315-1.37z" fill="#60256F"></path><path fill-rule="evenodd" clip-rule="evenodd" d="M52.598 6.25c1.075 0 1.668.74 1.668 1.734s-.593 1.735-1.668 1.735c-1.074 0-1.668-.741-1.668-1.735 0-.994.594-1.735 1.668-1.735m-3.223 5.69c1.166 0 3.202-.139 4.663-.277v8.882c0 1.063.115 1.456 1.281 1.456h.594v1.134h-6.675V22h.731c1.166 0 1.281-.393 1.281-1.456V14.9c0-1.55-.115-1.758-1.029-1.758h-.846v-1.204m19.249 7.587h1.92c0 1.643.434 2.707 2.012 2.707 1.463 0 2.423-.625 2.423-1.689 0-.855-.32-1.365-2.423-2.012-2.652-.81-3.932-1.782-3.932-3.585 0-2.105 1.874-3.377 4.572-3.377 1.738 0 3.269.324 3.931.624v3.17h-1.92c0-1.782-.434-2.522-2.08-2.522-1.052 0-1.714.44-1.714 1.365 0 .878.595 1.504 1.645 1.85l1.876.625c1.965.648 2.833 1.318 2.833 3.076 0 2.706-2.536 3.747-4.937 3.747-1.874 0-3.544-.462-4.206-.74v-3.239m10.699-7.586c2.125-.254 2.629-.924 2.811-3.261h1.99v3.26h3.657v1.343h-3.658v7.355c0 .994.366 1.433 1.189 1.433.823 0 1.189-.439 1.189-1.433v-1.18h1.92v.51c0 2.474-1.28 3.585-3.498 3.585-2.309 0-3.589-.764-3.589-3.631v-6.64h-2.011v-1.34m30.426-3.887h6.469v1.273h-1.188c-.846 0-.983.161-.983.948v10.64c0 .785.137.947.983.947h1.418v1.273h-7.202V21.86h1.029c.846 0 .983-.162.983-.947V9.625h-.069l-4.594 13.509h-2.058l-4.412-13.509h-.068v11.29c0 .784.136.946.983.946h1.188v1.273h-6.264V21.86h1.189c.846 0 .983-.162.983-.947v-10.64c0-.787-.137-.948-.983-.948h-.983V8.053h6.24l3.521 11.102h.047l3.771-11.102m11.018-1.803c1.074 0 1.668.74 1.668 1.734s-.594 1.735-1.668 1.735c-1.074 0-1.668-.741-1.668-1.735 0-.994.594-1.735 1.668-1.735m-3.223 5.69c1.166 0 3.201-.139 4.663-.277v8.882c0 1.063.114 1.456 1.28 1.456h.596v1.134h-6.676V22h.731c1.166 0 1.28-.393 1.28-1.456V14.9c0-1.55-.114-1.758-1.028-1.758h-.846v-1.204m16.139 11.196h4.503V22h-.731c-1.165 0-1.28-.392-1.28-1.456V6.249c-1.464.138-3.497.278-4.664.278v1.202h.847c.914 0 1.028.208 1.028 1.758v3.91h-.046c-.616-1.019-1.645-1.829-3.269-1.829-2.811 0-4.571 1.783-4.571 6.13 0 3.794 1.873 5.806 4.595 5.806 1.736 0 2.948-.74 3.542-2.175h.046v1.805zm-.205-5.273c0 2.844-1.12 3.978-2.447 3.978-1.668 0-2.605-1.342-2.605-4.372 0-3.169.914-4.233 2.514-4.233 1.578 0 2.538 1.342 2.538 4.627zm13.716-5.922h2.789l2.903 8.605h.046l1.623-6.084c.115-.393.206-.648.206-.925 0-.3-.161-.463-.731-.463h-1.053v-1.133h4.939v1.133h-.275c-.617 0-.753.209-1.073 1.342l-2.561 8.86h-2.675l-3.086-8.559h-.047l-3.04 8.559h-2.719l-2.744-9.507c-.161-.555-.435-.695-.869-.695h-.32v-1.133h5.737v1.133h-1.119c-.389 0-.617.116-.617.324 0 .324.137.671.228 1.064l1.486 6.084h.046l2.926-8.605M35.499 8.053h12.687v3.84h-2.058c-.136-2.175-.273-2.36-1.645-2.36h-3.635v5.274h1.098c1.714 0 1.76-.07 1.874-2.152h1.737v5.714H43.82c-.045-1.943-.205-2.082-1.188-2.082h-1.784v4.627c0 .785.137.947.983.947h1.303v1.273H35.5V21.86h1.44c.846 0 .984-.162.984-.947v-10.64c0-.787-.138-.948-.984-.948H35.5V8.053m21.374 3.886c1.302 0 3.336-.138 4.457-.278v2.568h.045c.778-1.873 2.08-2.66 3.933-2.66.663 0 1.303.092 1.83.277v3.331h-2.196c-.023-1.156-.274-1.804-1.166-1.804-1.051 0-2.103 1.434-2.103 3.376v3.795c0 1.063.115 1.456 1.28 1.456h1.211v1.134h-7.291V22h.731c1.166 0 1.28-.393 1.28-1.456V14.9c0-1.55-.114-1.758-1.029-1.758h-.982v-1.203m112.792 5.782v-.531c0-3.887-1.532-5.62-5.213-5.62-3.839 0-5.486 2.543-5.486 5.966 0 3.424 1.647 5.967 5.486 5.967 3.817 0 4.961-1.988 4.985-3.977h-2.333c-.022 1.735-.709 2.638-2.377 2.638-2.812 0-2.835-2.869-2.835-4.443h7.773zm-7.773-1.34c0-1.944.572-3.54 2.537-3.54 1.966 0 2.447 1.643 2.447 3.54h-4.984zm10.059 3.144h1.92c0 1.643.434 2.707 2.012 2.707 1.462 0 2.422-.625 2.422-1.689 0-.855-.32-1.365-2.422-2.012-2.652-.81-3.932-1.782-3.932-3.585 0-2.105 1.874-3.377 4.572-3.377 1.737 0 3.268.324 3.93.624v3.17h-1.919c0-1.782-.434-2.522-2.08-2.522-1.051 0-1.714.44-1.714 1.365 0 .878.594 1.504 1.645 1.85l1.875.625c1.966.648 2.834 1.318 2.834 3.076 0 2.706-2.536 3.747-4.937 3.747-1.873 0-3.544-.462-4.206-.74v-3.239m10.699-7.586c2.126-.254 2.629-.924 2.811-3.261h1.989v3.26h3.657v1.343h-3.657v7.355c0 .994.366 1.433 1.189 1.433.824 0 1.189-.439 1.189-1.433v-1.18h1.92v.51c0 2.474-1.281 3.585-3.498 3.585-2.309 0-3.589-.764-3.589-3.631v-6.64h-2.011v-1.34m22.082-2.407h1.851c1.533 0 2.676.718 2.676 2.428 0 1.62-1.373 2.616-2.995 2.616h-1.532V9.533zm-5.349-.207h1.44c.846 0 .982.161.982.947v10.64c0 .787-.136.949-.982.949h-1.44v1.273h7.795c3.086 0 5.486-.949 5.486-4.049 0-2.775-2.218-3.562-4.572-3.723v-.047c2.149-.231 4.093-1.226 4.093-3.608a3.503 3.503 0 0 0-2.379-3.332c-.525-.16-1.28-.323-2.536-.323h-7.887v1.273zm5.349 6.73h1.555c2.514 0 3.452 1.273 3.452 2.822 0 2.151-1.623 2.776-3.293 2.776h-1.714v-5.598zm17.352 7.078h4.068V22h-.594c-1.167 0-1.28-.392-1.28-1.456 0-1.018.158-4.349.158-5.529 0-2.406-1.142-3.447-4.822-3.447-3.704 0-4.413 1.852-4.413 3.402h2.562c0-1.088.342-2.06 1.896-2.06 1.647 0 2.058.717 2.058 2.429v1.065h-1.988c-3.91 0-5.122 1.85-5.122 3.77 0 2.173 1.533 3.33 3.498 3.33 1.624 0 3.041-.486 3.932-2.313h.047v1.943zm-.367-5.39c-.068 2.105-.433 4.28-2.583 4.28-.984 0-1.738-.717-1.738-1.828 0-1.873 1.416-2.452 2.995-2.452h1.326zm5.532-5.805c1.166 0 3.2-.138 4.321-.278v2.568h.046c.777-1.873 2.08-2.66 3.933-2.66 2.239 0 3.976 1.018 3.976 3.516v5.459c0 1.063.115 1.456 1.28 1.456h.594v1.134h-6.263V22h.32c1.166 0 1.281-.393 1.281-1.456v-4.789c0-1.642-.778-2.382-2.013-2.382-1.669 0-2.811 1.203-2.811 3.376v3.795c0 1.063.114 1.456 1.28 1.456h.32v1.134h-6.401V22h.731c1.167 0 1.281-.393 1.281-1.456V14.9c0-1.55-.114-1.758-1.029-1.758h-.846v-1.203m15.248-5.413c1.165 0 3.2-.138 4.663-.277v14.294c0 1.064.113 1.457 1.279 1.457h.322v1.134h-6.402V22h.731c1.167 0 1.281-.393 1.281-1.457V9.487c0-1.55-.114-1.758-1.029-1.758h-.845V6.526zm6.629 5.413h5.807v1.133h-.755c-.388 0-.663.115-1.096.532l-2.95 2.961 3.314 4.233c.823 1.04 1.122 1.18 2.058 1.202v1.134h-5.784V22h.458c.343 0 .572-.161.572-.393 0-.185-.092-.346-3.338-4.625l2.104-2.221c.959-.994 1.119-1.18 1.119-1.365 0-.232-.207-.324-.367-.324h-1.142v-1.133z" fill="#1A1919"></path></symbol><symbol id="svg-logo" viewBox="0 0 318 55"><title>First Midwest Bank, a division of Old National Bank</title><path d="M12.63 19.67H.92l1.72 1.72h9.99v-1.72zM12.63 16.63H1.98L0 18.55h12.63v-1.92zM12.63 13.59h-7.6l-1.99 1.98h9.59v-1.98zM12.63 5.99l-6.55 6.54h6.55V5.99zM15.54 19.67h-1.85v1.72h1.85v-1.72zM15.54 16.63h-1.85v1.92h1.85v-1.92zM14.83 3.78v8.75h.71V3.08l-.71.7zM23.41 14.84v.73h10.77l-.73-.73H23.41zM23.41 20.73v.66h11.17l.6-.66H23.41zM19.77 19.67v1.72h1.59v-.66h-.5l-1.09-1.06zM18.62 19.67H16.6v1.72h2.02v-1.72zM23.41 17.84v.71h13.81l-.77-.71H23.41zM21.35 17.84h-.68v.7h.68v-.7zM16.6 16.53v2.02h2.01v-.71h-.72l-1.29-1.31zM21.35 14.84h-.68v.73h.68v-.73zM13.69 13.59v1.98h1.85v-.73h-.6l-1.25-1.25zM18.62 14.84h-.71v.73h.71v-.73zM23.41 4.79v7.74h7.73l-7.73-7.74zM20.67 2.06v10.47h.69V2.74l-.69-.68zM12.63 22.45H3.7l1.98 1.98 6.95.01v-1.99zM15.54 22.45h-1.85v2h1.85v-2zM18.62 22.45H16.6v2h2.02v-2zM21.36 22.45h-1.59v2.01h1.59v-2.01zM22.41 22.31v2.15h2.91v6.19l7.15-7.14h-8.9l-1.16-1.2zM15.54 25.49h-1.85v6.94l1.85 1.85v-8.79zM18.61 25.49H16.6v9.85l2.01 2.02V25.49zM21.36 25.49h-1.59V36.2l1.59-1.58v-9.13z" fill="#6D2A83"></path><path d="M22.41 25.49v8.07l1.86-1.85v-6.22h-1.86zM12.63 25.49H6.74l5.89 5.89v-5.89zM18.61 0l-.7.84v11.69h.7V0zM26 34.87a1.62 1.62 0 1 1 3.238.1 1.62 1.62 0 0 1-3.238-.1zm1.62 2a2 2 0 1 0 0-4 2 2 0 0 0 0 4zM27.23 35h.4l.61 1h.39L28 35a.6.6 0 0 0 .6-.64c0-.45-.27-.65-.82-.65h-.88V36h.35l-.02-1zm0-.3V34h.48c.24 0 .5 0 .5.34s-.26.37-.56.37l-.42-.01z" fill="#6D2A83"></path><path d="M61 14.24c1.44 0 3.95-.17 5.76-.34v10.85c0 1.3.14 1.78 1.58 1.78h.74v1.38h-8.24v-1.38h.9c1.44 0 1.59-.48 1.59-1.78v-6.89c0-1.89-.15-2.15-1.28-2.15H61v-1.47zm4-6.95a2 2 0 0 1 2.06 2.12 2.06 2.06 0 0 1-4.12 0A2 2 0 0 1 65 7.29M84.79 23.51h2.38c0 2 .53 3.3 2.48 3.3s3-.76 3-2.06c0-1.05-.4-1.67-3-2.46-3.28-1-4.86-2.17-4.86-4.38 0-2.57 2.32-4.12 5.65-4.12a13.999 13.999 0 0 1 4.86.76v3.87h-2.37c0-2.17-.54-3.08-2.57-3.08-1.3 0-2.12.54-2.12 1.67s.73 1.84 2 2.26l2.32.76c2.43.79 3.5 1.61 3.5 3.76 0 3.3-3.13 4.58-6.1 4.58a15.141 15.141 0 0 1-5.2-.91l.03-3.95zM98 14.24c2.63-.31 3.25-1.13 3.48-4h2.45v4h4.52v1.64h-4.52v9c0 1.22.46 1.75 1.47 1.75s1.47-.53 1.47-1.75v-1.46h2.37V24c0 3-1.58 4.38-4.32 4.38s-4.43-.93-4.43-4.43v-8.07H98v-1.64zM135.61 9.5h8v1.55h-1.47c-1 0-1.21.2-1.21 1.16v13c0 1 .17 1.16 1.21 1.16h1.76v1.55H135v-1.56h1.27c1 0 1.21-.2 1.21-1.16V11.42h-.08l-5.68 16.49h-2.54l-5.45-16.49h-.09V25.2c0 1 .17 1.16 1.22 1.16h1.47v1.55h-7.74v-1.55H120c1 0 1.22-.2 1.22-1.16v-13c0-1-.17-1.16-1.22-1.16h-1.21V9.5h7.71l4.35 13.55h.15l4.61-13.55zM145.24 14.24c1.44 0 4-.17 5.76-.34v10.85c0 1.3.14 1.78 1.58 1.78h.74v1.38h-8.25v-1.38h.9c1.44 0 1.59-.48 1.59-1.78v-6.89c0-1.89-.15-2.15-1.27-2.15h-1l-.05-1.47zm4-6.95a2.001 2.001 0 0 1 2.06 2.12 2.051 2.051 0 0 1-.603 1.457 2.07 2.07 0 0 1-1.457.603 2.057 2.057 0 0 1-2.06-2.06 1.993 1.993 0 0 1 .562-1.515 2 2 0 0 1 1.498-.605zM164.93 21.47c0 3.48-1.39 4.86-3 4.86-2.07 0-3.22-1.64-3.22-5.34 0-3.87 1.13-5.17 3.1-5.17 1.97 0 3.14 1.64 3.14 5.65h-.02zm.27 6.44h5.57v-1.38h-.91c-1.44 0-1.58-.48-1.58-1.78V7.29c-1.81.17-4.32.34-5.76.34V9.1h1c1.13 0 1.27.26 1.27 2.15V16h-.05a4.507 4.507 0 0 0-4-2.23c-3.47 0-5.65 2.18-5.65 7.48 0 4.64 2.32 7.09 5.68 7.09a4.32 4.32 0 0 0 4.37-2.65h.06v2.22zM181.88 14.24h3.44l3.59 10.51h.09l2-7.43a4.26 4.26 0 0 0 .26-1.13c0-.37-.2-.56-.91-.56H189v-1.39h6.1v1.39h-.34c-.76 0-.93.25-1.32 1.63l-3.17 10.82H187l-3.81-10.45h-.06l-3.76 10.45H176l-3.39-11.61a1.004 1.004 0 0 0-1.07-.84h-.4v-1.39h7.09v1.39h-1.38c-.48 0-.76.14-.76.39.049.442.142.877.28 1.3l1.83 7.43h.06l3.62-10.51zM43.86 9.5h15.68v4.68H57c-.17-2.65-.34-2.88-2-2.88h-4.53v6.44h1.36c2.12 0 2.17-.08 2.32-2.62h2.14v7h-2.14c-.06-2.37-.26-2.54-1.47-2.54h-2.21v5.62c0 1 .17 1.16 1.22 1.16h1.61v1.55h-9.44v-1.55h1.78c1 0 1.22-.2 1.22-1.16v-13c0-1-.17-1.16-1.22-1.16h-1.78V9.5zM70.27 14.24c1.61 0 4.13-.17 5.51-.34V17h.06a4.81 4.81 0 0 1 4.86-3.25 6.92 6.92 0 0 1 2.26.34v4.11h-2.72c0-1.42-.33-2.21-1.44-2.21-1.29 0-2.59 1.75-2.59 4.13v4.63c0 1.3.14 1.78 1.58 1.78h1.49v1.38h-9v-1.38h.91c1.44 0 1.58-.48 1.58-1.78v-6.89c0-1.89-.14-2.15-1.27-2.15h-1.23v-1.47zM200 19.67c0-2.38.7-4.33 3.13-4.33 2.43 0 3 2 3 4.33H200zm9.6 1.63v-.65c0-4.74-1.89-6.86-6.44-6.86-4.74 0-6.78 3.11-6.78 7.29s2 7.28 6.78 7.28 6.13-2.42 6.16-4.85h-2.88c0 2.12-.88 3.22-2.94 3.22-3.47 0-3.5-3.5-3.5-5.43h9.6zM212.47 23.51h2.37c0 2 .54 3.3 2.49 3.3 1.8 0 3-.76 3-2.06 0-1.05-.4-1.67-3-2.46-3.28-1-4.86-2.17-4.86-4.38 0-2.57 2.31-4.12 5.65-4.12a13.94 13.94 0 0 1 4.85.76v3.87h-2.37c0-2.17-.53-3.08-2.57-3.08-1.3 0-2.12.54-2.12 1.67s.74 1.84 2 2.26l2.31.76c2.43.79 3.51 1.61 3.51 3.76 0 3.3-3.14 4.58-6.11 4.58a15.116 15.116 0 0 1-5.19-.91l.04-3.95zM225.69 14.24c2.62-.31 3.25-1.13 3.47-4h2.46v4h4.52v1.64h-4.52v9c0 1.22.45 1.75 1.47 1.75s1.47-.53 1.47-1.75v-1.46h2.37V24c0 3-1.58 4.38-4.32 4.38s-4.44-.93-4.44-4.43v-8.07h-2.48v-1.64zM253 19.27h1.92c3.11 0 4.27 1.55 4.27 3.45 0 2.62-2 3.39-4.07 3.39H253v-6.84zm-6.61-8.22h1.78c1.05 0 1.22.2 1.22 1.16v13c0 1-.17 1.16-1.22 1.16h-1.78v1.55H256c3.81 0 6.77-1.15 6.77-4.94 0-3.39-2.74-4.35-5.65-4.55v-.05c2.66-.29 5.06-1.5 5.06-4.41a4.28 4.28 0 0 0-2.94-4.07 10.31 10.31 0 0 0-3.13-.39h-9.75l.03 1.54zm6.61.25h2.29c1.89 0 3.31.88 3.31 3s-1.7 3.19-3.7 3.19H253V11.3zM274 21.33c-.08 2.57-.54 5.23-3.19 5.23a2.097 2.097 0 0 1-2.025-1.374 2.095 2.095 0 0 1-.125-.856c0-2.29 1.75-3 3.7-3H274zm.45 6.58h5v-1.38h-.73c-1.45 0-1.59-.48-1.59-1.78s.2-5.31.2-6.75c0-2.94-1.41-4.21-6-4.21s-5.45 2.26-5.45 4.15h3.16c0-1.32.43-2.51 2.35-2.51 1.92 0 2.54.87 2.54 3v1.3h-2.43c-4.83 0-6.33 2.26-6.33 4.61 0 2.65 1.9 4.06 4.33 4.06a4.872 4.872 0 0 0 4.86-2.82h.05l.04 2.33zM280.79 14.24c1.45 0 4-.17 5.34-.34V17h.06a4.81 4.81 0 0 1 4.86-3.25c2.77 0 4.91 1.24 4.91 4.29v6.67c0 1.3.15 1.78 1.58 1.78h.74v1.38h-7.74v-1.34h.4c1.44 0 1.58-.48 1.58-1.78V18.9c0-2-1-2.91-2.49-2.91-2.06 0-3.47 1.47-3.47 4.13v4.63c0 1.3.14 1.78 1.58 1.78h.4v1.38h-7.91v-1.38h.9c1.44 0 1.58-.48 1.58-1.78v-6.89c0-1.89-.14-2.15-1.27-2.15h-1l-.05-1.47zM307.83 14.24H315v1.39h-.93a1.82 1.82 0 0 0-1.36.64l-3.64 3.62 4.09 5.17c1 1.27 1.39 1.44 2.55 1.47v1.38h-7.15v-1.38h.57c.42 0 .7-.2.7-.48 0-.28-.11-.42-4.12-5.65l2.6-2.71c1.18-1.22 1.38-1.44 1.38-1.67a.406.406 0 0 0-.285-.373.414.414 0 0 0-.165-.017h-1.41v-1.39zm-8.19-6.61c1.44 0 3.95-.17 5.76-.34v17.46c0 1.3.14 1.78 1.58 1.78h.4v1.38h-7.91v-1.38h.9c1.44 0 1.58-.48 1.58-1.78v-13.5c0-1.9-.14-2.15-1.27-2.15h-1l-.04-1.47z" fill="#0A0B13"></path><path d="M124.69 42.51h1.09l2.46 7.79h-.76l-.79-2.54h-2.94L123 50.3h-.76l2.45-7.79zm1.84 4.66l-1.29-4.08-1.29 4.08h2.58zM136.1 50.3h-.45l-.11-.73a2.08 2.08 0 0 1-1.8.84c-1.46 0-2.26-1-2.26-2.95 0-1.65.91-2.88 2.21-2.88a2.18 2.18 0 0 1 1.76.84v-2.91h.65v7.79zm-.65-4.2a2.258 2.258 0 0 0-1.58-1c-1.17 0-1.74 1-1.74 2.48s.52 2.31 1.64 2.31a2.005 2.005 0 0 0 1.68-1V46.1zM137.54 43.46v-1h.65v1h-.65zm.65 6.84h-.65v-5.61h.65v5.61zM139.43 44.69h.69l1.53 4.62 1.56-4.62h.69L142 50.3h-.64l-1.93-5.61zM145.16 43.46v-1h.65v1h-.65zm.65 6.84h-.65v-5.61h.65v5.61zM147.43 48.94a1.84 1.84 0 0 0 1.74 1 1.15 1.15 0 0 0 1.25-1.07c0-1.63-3.3-.71-3.3-2.71 0-1 .83-1.53 1.78-1.53a2.07 2.07 0 0 1 1.93 1l-.5.34a1.665 1.665 0 0 0-1.45-.84c-.63 0-1.12.3-1.12 1 0 1.37 3.31.56 3.31 2.74a1.734 1.734 0 0 1-1.254 1.536 1.74 1.74 0 0 1-.696.054 2.502 2.502 0 0 1-2.12-1.18l.43-.34zM152.35 43.46v-1h.65v1h-.65zm.65 6.84h-.65v-5.61h.65v5.61zM158.89 47.5c0 1.52-.57 2.91-2.31 2.91-1.74 0-2.31-1.39-2.31-2.91 0-1.52.56-2.92 2.31-2.92s2.31 1.42 2.31 2.92zm-4 0c0 1.52.51 2.39 1.67 2.39s1.66-.87 1.66-2.39-.51-2.4-1.66-2.4-1.65.9-1.65 2.4h-.02zM160.16 50.3v-5.61h.65v.89a2.486 2.486 0 0 1 1.92-1c1.17 0 1.66.67 1.66 1.89v3.83h-.64v-3.76c0-.93-.28-1.44-1.15-1.44-.69 0-1.08.42-1.79 1.07v4.13h-.65zM173.29 47.5c0 1.52-.56 2.91-2.31 2.91s-2.31-1.39-2.31-2.91c0-1.52.56-2.92 2.31-2.92s2.31 1.42 2.31 2.92zm-4 0c0 1.52.51 2.39 1.66 2.39s1.66-.87 1.66-2.39-.5-2.4-1.66-2.4-1.63.9-1.63 2.4h-.03zM175.37 45.21v5.09h-.65v-5.09h-.93v-.52h.93v-.8c0-1 .39-1.49 1.35-1.49.236.005.47.035.7.09V43a1.87 1.87 0 0 0-.64-.11c-.5 0-.76.25-.76.9v.87h1.14v.52l-1.14.03z" fill="#1F1F1F"></path><path d="M194.15 39.1h-13.22v2.5h13.22v-2.5z" fill="#FFC926"></path><path d="M194.15 42.84h-13.22v7.46h13.22v-7.46z" fill="#00549B"></path><path d="M194.15 51.55h-13.22v2.5h13.22v-2.5z" fill="#FFC926"></path><path d="M205.28 46.58a3.634 3.634 0 0 1-2.45 3.645c-.498.17-1.027.23-1.55.175a3.584 3.584 0 0 1-3.567-2.265 3.575 3.575 0 0 1-.243-1.475 3.76 3.76 0 0 1 1.131-2.766 3.767 3.767 0 0 1 2.789-1.074 3.63 3.63 0 0 1 3.85 3.76h.04zm-3.98-3.26c-1.35 0-2.07 1.26-2.07 3.09 0 1.34.47 3.49 2.26 3.49 1.43 0 2-1.4 2-3.18 0-1.78-.82-3.4-2.18-3.4M208.7 48.41c-.034.344.028.69.18 1 .15.19.34.27 1.14.27 1 0 1.31 0 2-1.3.08-.11.34-.07.41.06a6.312 6.312 0 0 1-.47 1.78h-5.73a.311.311 0 0 1 0-.38l.42-.06c.49-.06.56-.15.56-1.17v-4.04c0-1-.07-1.12-.56-1.18h-.32a.252.252 0 0 1-.065-.295.27.27 0 0 1 .065-.085h3.27a.3.3 0 0 1 0 .38h-.28c-.5.07-.56.16-.56 1.18l-.06 3.84zM213.71 44.77c0-1 0-1.25-.53-1.31h-.21c-.11 0-.11-.37 0-.38.92-.06 1.77-.1 2.93-.1a7.81 7.81 0 0 1 2.56.36 3.329 3.329 0 0 1 2.23 3.18 3.515 3.515 0 0 1-2 3.28 6.13 6.13 0 0 1-2.77.51c-.52 0-1.07-.06-1.46-.06h-1.71c-.09-.06-.09-.33 0-.38l.34-.06c.49-.07.56-.16.56-1.17l.06-3.87zm1.57 3.47c0 .61 0 1 .22 1.23a1.16 1.16 0 0 0 .91.32c1.89 0 2.54-1.69 2.54-3.18 0-2-1-3.15-3-3.15a.86.86 0 0 0-.57.14c-.07.206-.094.424-.07.64l-.03 4zM231.26 48.36v1.77a.84.84 0 0 1-.64.25s-.38-.56-.89-1.19l-2.53-3.14c-.37-.491-.771-.959-1.2-1.4a2.088 2.088 0 0 0-.05.7v2.13a7.72 7.72 0 0 0 .16 2c.1.23.35.31.64.35l.3.05a.331.331 0 0 1 0 .38h-2.69a.331.331 0 0 1 0-.38h.18c.3-.05.52-.13.6-.36.145-.656.199-1.33.16-2v-2.83a2.376 2.376 0 0 0-.08-.93c-.09-.19-.24-.32-.62-.37h-.31c-.08-.09-.07-.35 0-.38h2.44a9.687 9.687 0 0 0 1.81 2.5l.92 1.08c.48.57.8 1 1 1.21.046-.16.063-.325.05-.49v-1.57a7.51 7.51 0 0 0-.17-2c-.1-.23-.34-.31-.64-.35h-.29a.331.331 0 0 1 0-.38L231 43h1.23a.374.374 0 0 1 .053.19.374.374 0 0 1-.053.19h-.2a.68.68 0 0 0-.59.37 7.51 7.51 0 0 0-.17 2l-.01 2.61zM234.8 47.75c-.26 0-.29 0-.36.22l-.4 1.27a1.217 1.217 0 0 0-.08.4c0 .06.09.13.39.18l.33.06c.07.07.09.33 0 .38h-2.41c-.12-.06-.11-.29 0-.38h.29a.762.762 0 0 0 .67-.54c.19-.44.38-1 .68-1.76l1-2.67a4 4 0 0 0 .42-1.4c.387-.12.733-.345 1-.65.14 0 .21 0 .25.21.09.32.22.73.49 1.51l1.5 4.3c.23.65.32.91.73 1l.42.07c.06 0 .08.32 0 .38h-3.17a.252.252 0 0 1-.065-.295.27.27 0 0 1 .065-.085l.36-.06c.25 0 .29-.12.29-.18a5 5 0 0 0-.21-.75l-.29-.94c-.06-.18-.15-.2-.53-.2l-1.37-.07zm1.18-.58c.25 0 .3 0 .22-.32l-.29-.89c-.15-.47-.3-.92-.39-1.15-.173.395-.323.798-.45 1.21l-.28.82c-.1.3 0 .33.23.33h.96zM241.51 43.81c0-.26 0-.31-.26-.31h-.68c-.8 0-1 .43-1.36 1.23a.312.312 0 0 1-.41-.09c.165-.614.288-1.24.37-1.87a.25.25 0 0 1 .15-.05.26.26 0 0 1 .15 0c.06.19.09.23.92.23h4.08c.73 0 .89 0 1-.24a.29.29 0 0 1 .14 0 .25.25 0 0 1 .17.07 7.842 7.842 0 0 0-.17 1.89c0 .1-.35.12-.4 0-.19-.7-.34-1.21-1.17-1.21h-.65c-.27 0-.3 0-.3.31v4.84c0 1 .07 1.11.56 1.17l.44.06a.331.331 0 0 1 0 .38h-3.62a.3.3 0 0 1 0-.38l.49-.06c.5 0 .56-.15.56-1.17l-.01-4.8zM248.77 48.63c0 1 .07 1.1.57 1.19l.31.06c.09.06.07.32 0 .38H246.34a.3.3 0 0 1 0-.38l.3-.06c.51-.09.57-.16.57-1.19v-4c0-1-.06-1.11-.57-1.19l-.3-.06a.3.3 0 0 1 0-.38h3.32a.3.3 0 0 1 0 .38l-.31.06c-.5.08-.57.16-.57 1.19l-.01 4zM258.39 46.58a3.634 3.634 0 0 1-2.45 3.645c-.498.17-1.027.23-1.55.175a3.584 3.584 0 0 1-3.567-2.265 3.575 3.575 0 0 1-.243-1.475 3.76 3.76 0 0 1 1.131-2.766 3.767 3.767 0 0 1 2.789-1.074 3.63 3.63 0 0 1 3.85 3.76h.04zm-3.98-3.26c-1.35 0-2.07 1.26-2.07 3.09 0 1.34.47 3.49 2.26 3.49 1.43 0 2-1.4 2-3.18 0-1.78-.82-3.4-2.18-3.4M266.14 48.36v1.77a.866.866 0 0 1-.65.25s-.37-.56-.89-1.19l-2.53-3.14a15.34 15.34 0 0 0-1.19-1.4 1.762 1.762 0 0 0-.06.7v2.13a7.594 7.594 0 0 0 .17 2c.09.23.35.31.63.35l.31.05a.347.347 0 0 1 0 .38h-2.7a.347.347 0 0 1 0-.38h.19c.29-.05.51-.13.6-.36.135-.658.186-1.33.15-2v-2.83c.03-.312.007-.626-.07-.93-.09-.19-.24-.32-.63-.37h-.3c-.08-.09-.07-.35 0-.38h2.43a9.92 9.92 0 0 0 1.81 2.5l.92 1.08c.49.57.81 1 1.06 1.21a1.748 1.748 0 0 0 0-.49v-1.57a7.633 7.633 0 0 0-.16-2c-.1-.23-.34-.31-.64-.35h-.3a.373.373 0 0 1 0-.38h2.7a.331.331 0 0 1 0 .38h-.2a.698.698 0 0 0-.59.37 7.633 7.633 0 0 0-.16 2l.1 2.6zM269.68 47.75c-.26 0-.3 0-.36.22l-.41 1.27a1.56 1.56 0 0 0-.08.4c0 .06.09.13.4.18l.33.06c.06.07.09.33 0 .38h-2.42c-.12-.06-.11-.29 0-.38h.3a.762.762 0 0 0 .67-.54c.18-.44.38-1 .68-1.76l1-2.67c.222-.439.368-.912.43-1.4a2.14 2.14 0 0 0 1-.65c.15 0 .21 0 .26.21.08.32.22.73.49 1.51l1.49 4.3c.23.65.33.91.74 1l.41.07c.07 0 .09.32 0 .38h-3.17a.252.252 0 0 1-.065-.295.27.27 0 0 1 .065-.085l.35-.06c.25 0 .3-.12.3-.18a5 5 0 0 0-.21-.75l-.3-.94c-.05-.18-.14-.2-.52-.2l-1.38-.07zm1.17-.58c.25 0 .31 0 .22-.32l-.28-.89c-.16-.47-.3-.92-.4-1.15-.11.24-.28.7-.45 1.21l-.27.82c-.1.3-.05.33.23.33h.95zM277.62 48.41c-.034.344.028.69.18 1 .15.19.34.27 1.14.27 1 0 1.31 0 2-1.3.08-.11.34-.07.41.06a6.691 6.691 0 0 1-.47 1.78h-5.73c-.1-.06-.13-.32 0-.38l.42-.06c.49-.06.56-.15.56-1.17v-4.04c0-1-.07-1.12-.56-1.18h-.32a.252.252 0 0 1-.065-.295.27.27 0 0 1 .065-.085h3.27a.3.3 0 0 1 0 .38h-.28c-.5.07-.56.16-.56 1.18l-.06 3.84zM285.42 44.78c0-1.11 0-1.22-.48-1.28h-.3c-.09-.05-.12-.38.05-.39.83-.06 1.63-.1 2.73-.1a4.56 4.56 0 0 1 2.24.4 1.548 1.548 0 0 1 .75 1.4 1.442 1.442 0 0 1-1.12 1.37c-.11 0-.22.06-.22.12s.06.06.16.09a1.891 1.891 0 0 1 .33 3.66 6.93 6.93 0 0 1-2.19.27H284.55c-.09-.06-.09-.35 0-.38l.31-.07c.5-.1.56-.17.56-1.16v-3.93zm1.52 1.06c0 .29 0 .31.58.31a1.168 1.168 0 0 0 1.29-1.26 1.29 1.29 0 0 0-1.35-1.43c-.51 0-.52.09-.52.57v1.81zm0 2.54c0 .85.11 1.39 1 1.39s1.24-.63 1.24-1.52a1.486 1.486 0 0 0-1.6-1.62c-.6 0-.6 0-.6.45l-.04 1.3zM293.62 47.75c-.26 0-.29 0-.36.22l-.4 1.27a1.217 1.217 0 0 0-.08.4c0 .06.09.13.39.18l.33.06c.07.07.09.33 0 .38h-2.41c-.12-.06-.11-.29 0-.38h.29a.762.762 0 0 0 .67-.54c.19-.44.38-1 .68-1.76l1-2.67a4 4 0 0 0 .42-1.4c.387-.12.733-.345 1-.65.14 0 .21 0 .25.21.09.32.22.73.49 1.51l1.5 4.3c.23.65.33.91.73 1l.42.07c.06 0 .09.32 0 .38h-3.17a.24.24 0 0 1 0-.38l.35-.06c.25 0 .29-.12.29-.18a3.904 3.904 0 0 0-.21-.75l-.29-.94c-.06-.18-.14-.2-.53-.2l-1.36-.07zm1.18-.58c.25 0 .3 0 .22-.32l-.29-.89c-.15-.47-.29-.92-.39-1.15-.173.395-.323.798-.45 1.21l-.28.82c-.1.3 0 .33.23.33h.96zM306.11 48.36v1.77a.84.84 0 0 1-.64.25s-.38-.56-.89-1.19l-2.53-3.14c-.37-.491-.771-.959-1.2-1.4a2.088 2.088 0 0 0-.05.7v2.13a7.72 7.72 0 0 0 .16 2c.1.23.35.31.64.35l.3.05a.331.331 0 0 1 0 .38h-2.69a.331.331 0 0 1 0-.38h.18c.3-.05.52-.13.61-.36.135-.658.186-1.33.15-2v-2.83a2.376 2.376 0 0 0-.08-.93c-.09-.19-.24-.32-.62-.37h-.31c-.08-.09-.07-.35 0-.38h2.44a9.687 9.687 0 0 0 1.81 2.5l.92 1.08c.48.57.8 1 1.05 1.21.046-.16.063-.325.05-.49v-1.57a7.51 7.51 0 0 0-.17-2c-.1-.23-.34-.31-.63-.35h-.3a.331.331 0 0 1 0-.38h2.7a.374.374 0 0 1 .053.19.374.374 0 0 1-.053.19h-.2a.68.68 0 0 0-.59.37 7.51 7.51 0 0 0-.17 2l.06 2.6zM310.37 45.91c0 .36.06.4.19.4s.67-.41.85-.63c.58-.7 1.12-1.35 1.47-1.87a.673.673 0 0 0 .14-.28c0-.05 0-.12-.19-.14h-.25a.24.24 0 0 1 0-.38L314 43h1.33c.13 0 .14.29.06.38a3.803 3.803 0 0 0-.95.2 4.784 4.784 0 0 0-1.62 1.4l-.5.57a.469.469 0 0 0-.15.26c.099.245.234.474.4.68.55.82 1.19 1.87 1.94 2.86a1.051 1.051 0 0 0 .81.51l.35.06c.07.1.07.33 0 .38h-3.3c-.14 0-.14-.32 0-.38l.27-.07c.12 0 .19-.06.19-.11a.551.551 0 0 0-.09-.22l-.64-1-.58-.89c-.39-.6-.58-.87-.82-.87s-.26.16-.26.75v1.15c0 1 .06 1.12.55 1.18l.31.05a.3.3 0 0 1 0 .38H308a.3.3 0 0 1 0-.38l.31-.05c.49-.06.56-.16.56-1.18v-4.09c0-1-.07-1.12-.56-1.18H308a.252.252 0 0 1-.065-.295.27.27 0 0 1 .065-.085h3.3a.279.279 0 0 1 0 .38h-.31c-.49.06-.55.16-.55 1.18l-.07 1.34zM316.68 41.46a.822.822 0 0 1 .758.506.817.817 0 0 1-.178.894.821.821 0 0 1-1.4-.58.819.819 0 0 1 .82-.82zm0 1.52a.699.699 0 1 0 0-1.4.7.7 0 1 0 0 1.4zm-.32-1.18h.37c.22 0 .33.09.33.27a.247.247 0 0 1-.059.19.238.238 0 0 1-.181.08l.27.42h-.17l-.27-.42h-.13v.42h-.16v-.96zm.16.41h.19c.12 0 .2 0 .2-.15s-.1-.14-.2-.14h-.19v.29z" fill="#00549B"></path></symbol><symbol id="svg-arrow-down" viewBox="0 0 16 18"><title>Arrow Down</title><desc>Icon of an arrow pointing downwards</desc><path d="M6.36 1.41v10.85l-3.8-3.8a1.49 1.49 0 0 0-2.12 0 1.49 1.49 0 0 0 0 2.12L7.86 18l7.42-7.42c.59-.59.59-1.54 0-2.12a1.49 1.49 0 0 0-2.12 0l-3.8 3.8V1.41C9.36.63 8.73 0 7.95 0h-.18c-.78 0-1.41.63-1.41 1.41z"></path></symbol><symbol id="svg-arrow-left" viewBox="0 0 18 16"><title>Arrow Left</title><desc>Icon of an arrow pointing to the left</desc><path d="M16.59 6.36H5.74l3.8-3.8c.59-.59.59-1.54 0-2.12a1.49 1.49 0 0 0-2.12 0L0 7.86l7.42 7.42c.59.59 1.54.59 2.12 0 .59-.59.59-1.54 0-2.12l-3.8-3.8h10.85c.78 0 1.41-.63 1.41-1.41v-.18c0-.78-.63-1.41-1.41-1.41z"></path></symbol><symbol id="svg-arrow-right" viewBox="0 0 18 16"><title>Arrow Right</title><desc>Icon of an arrow pointing to the right</desc><path d="M1.41 9.36h10.85l-3.8 3.8a1.49 1.49 0 0 0 0 2.12c.59.59 1.54.59 2.12 0L18 7.86 10.58.44a1.49 1.49 0 0 0-2.12 0 1.49 1.49 0 0 0 0 2.12l3.8 3.8H1.41C.63 6.36 0 6.99 0 7.77v.18c0 .78.63 1.41 1.41 1.41z"></path></symbol><symbol id="svg-arrow-up" viewBox="0 0 16 18"><title>Arrow Up</title><desc>Icon of an arrow pointing upwards</desc><path d="M9.36 16.59V5.74l3.8 3.8c.59.59 1.54.59 2.12 0 .59-.59.59-1.54 0-2.12L7.86 0 .44 7.42a1.49 1.49 0 0 0 0 2.12c.59.59 1.54.59 2.12 0l3.8-3.8v10.85c0 .78.63 1.41 1.41 1.41h.18c.78 0 1.41-.63 1.41-1.41z"></path></symbol><symbol id="svg-bank" viewBox="0 0 7 7"><title>Bank Icon</title><desc>Icon of a bank building</desc><path d="M4.449 4.732h.015V2.715h-.015a.157.157 0 0 1-.157-.157V2.24h-.209v.318c0 .086-.07.157-.157.157h-.015v2.017h.015c.087 0 .157.07.157.157v.316h.209V4.89c0-.087.07-.157.157-.157zm-2.641.896h4.196V5.46H.492v.17h.473a.127.127 0 0 1 0 .254H.254v.267h5.988v-.268H1.808a.127.127 0 0 1 0-.253zm-1.667 0h.097v-.28c0-.079.064-.143.143-.143h.154V4.89c0-.087.07-.157.157-.157h.015V2.715H.692a.157.157 0 0 1-.157-.157V2.24H.187a.165.165 0 0 1-.165-.163v-.801c-.005-.114.044-.148.145-.178L3.147.027c.097-.035.1-.035.19-.004L6.33 1.098c.098.029.15.066.146.178v.801c0 .09-.076.163-.166.163h-.347v.318c0 .086-.07.157-.157.157H5.79v2.017h.015c.086 0 .157.07.157.157v.316h.153c.08 0 .143.064.143.143v.28h.098c.077 0 .14.064.14.141v.494a.14.14 0 0 1-.14.141H.14a.141.141 0 0 1-.14-.14v-.495a.14.14 0 0 1 .14-.14zm2.272-.423V4.89c0-.087.07-.157.157-.157h.015V2.715H2.57a.157.157 0 0 1-.157-.157V2.24h-.208v.318c0 .086-.07.157-.157.157h-.015v2.017h.015c.086 0 .156.07.156.157v.316h.21zm2.305-.473h.818V2.715h-.818v2.017zM3.657 2.715h-.818v2.017h.818V2.715zm-1.879 0H.962v2.017h.818V2.715zm3.93-.475H4.546v.22h1.162v-.22zm-3.758 0H.79v.22h1.16v-.22zm1.88 0H2.666v.22H3.83v-.22zm2.39-.91L3.249.26.276 1.33v.656H6.22v-.657zM1.95 4.985H.79v.22h1.16v-.22zm1.88 0H2.666v.22H3.83v-.22zm1.878 0H4.546v.22h1.162v-.22z"></path><path clip-rule="evenodd" d="M3.196.577h.106a.02.02 0 0 1 .021.02v.09a.597.597 0 0 1 .205.043c.015.007.013.009.01.021L3.5.896c-.003.013-.002.012-.014.006A.481.481 0 0 0 3.28.856c-.054 0-.13.015-.128.084 0 .069.129.11.18.13.14.048.253.12.252.284 0 .158-.122.25-.267.277v.104c0 .011-.01.02-.022.02h-.107a.021.021 0 0 1-.02-.02v-.093a.62.62 0 0 1-.234-.052c-.027-.013-.024-.01-.016-.038l.034-.134c.005-.02.002-.018.021-.009a.54.54 0 0 0 .233.058c.06 0 .146-.019.146-.094s-.102-.11-.16-.13c-.137-.044-.272-.115-.274-.277 0-.152.117-.242.257-.269v-.1c0-.011.01-.02.021-.02zM1.398 5.628a.127.127 0 1 1 0 .255.127.127 0 0 1 0-.255z"></path></symbol><symbol id="svg-check" viewBox="0 0 19 16"><title>Check Icon</title><desc>Icon of a bank check</desc><path d="M18 6h-1.5a.5.5 0 0 1 0-1h2a.5.5 0 0 1 .5.5v10a.5.5 0 0 1-.5.5H.5a.5.5 0 0 1-.5-.5v-10A.5.5 0 0 1 .5 5h3a.5.5 0 0 1 0 1H1v9h17V6zM4.026 8.342a.5.5 0 0 1 .12-.196l8-8a.5.5 0 0 1 .708 0l2 2a.5.5 0 0 1 0 .708l-8 8a.5.5 0 0 1-.196.12l-3 1a.5.5 0 0 1-.632-.632l1-3zm.265 2.367l1.939-.646L13.793 2.5 12.5 1.207 4.937 8.77l-.646 1.94zM9.5 13a.5.5 0 0 1 0-1h6a.5.5 0 0 1 0 1h-6zm3-2a.5.5 0 0 1 0-1h3a.5.5 0 0 1 0 1h-3z"></path></symbol><symbol id="svg-checkmark" viewBox="0 0 78 78"><title>Checkmark Icon</title><desc>Icon of a checkmark</desc><path fill-rule="evenodd" clip-rule="evenodd" fill="#333333" d="M17.333 6.573a39 39 0 1 1 43.334 64.854A39 39 0 0 1 17.333 6.573zM35.09 47.26l20.53-21.52h.04A3.001 3.001 0 1 1 60 29.88L37.45 53.49a3 3 0 0 1-4.15.18L20 42a3.002 3.002 0 1 1 3.93-4.54l11.16 9.8z"></path></symbol><symbol id="svg-credit-card" viewBox="0 0 776 523"><title>Credit-Card Icon</title><desc>Icon of a credit-card</desc><path d="M69.65 0h636.61c38.35 0 69.65 31.31 69.65 69.66V452.6c0 38.34-31.3 69.65-69.65 69.65H69.65C31.31 522.25 0 490.94 0 452.6V69.66C0 31.31 31.31 0 69.65 0zm380.42 297.64h203.41v39.1H450.07v-39.1zm0 75.64h203.41v39.1H450.07v-39.1zM39.1 107.5h697.71V69.66c0-16.77-13.79-30.56-30.55-30.56H69.65c-16.76 0-30.55 13.79-30.55 30.56v37.84zm697.71 100.54H39.1V452.6c0 16.76 13.79 30.55 30.55 30.55h636.61c16.76 0 30.55-13.79 30.55-30.55V208.04z" fill="#000"></path></symbol><symbol id="svg-funds" viewBox="0 0 94 94"><title>Funds Icon</title><desc>Icon of hands holding a bag of money</desc><path d="M64.514 34.4c0-4.6-2-10.7-5.2-15.5a21.8 21.8 0 0 0-6.4-6.7l3.2-6.4a3.9 3.9 0 0 0-.2-3.9 3.9 3.9 0 0 0-3.4-1.9h-12a3.9 3.9 0 0 0-3.4 1.9 3.9 3.9 0 0 0-.2 3.9l3.2 6.4a21.8 21.8 0 0 0-6.4 6.7c-3.2 4.8-5.2 10.9-5.2 15.5 0 9.3 8.1 16.8 18 16.8s18-7.5 18-16.8zm-25.8-29.5a2 2 0 0 1 .1-2 1.9 1.9 0 0 1 1.7-.9h12a1.9 1.9 0 0 1 1.7.9 2 2 0 0 1 .1 2l-3.1 6.3a10.601 10.601 0 0 0-9.4 0l-3.1-6.3zm-8.2 29.5c0-8.4 7.5-22.3 16-22.3s16 13.9 16 22.3-7.2 14.8-16 14.8-16-6.6-16-14.8z"></path><path d="M47.614 42.8v-1.9a6.497 6.497 0 0 0 2-.4 7.198 7.198 0 0 0 2.1-1.2 5.499 5.499 0 0 0 1.4-1.9c.33-.862.5-1.777.5-2.7a5 5 0 0 0-.6-2.6 4.9 4.9 0 0 0-1.4-1.8 10.307 10.307 0 0 0-2.1-1.1l-.5-.2-1.3-.5v-5.1a1.5 1.5 0 0 1 1.3.6 2.5 2.5 0 0 1 .6 1.9v.3h3.5v-.3a6.6 6.6 0 0 0-.4-2.5 5.5 5.5 0 0 0-1.3-1.7 5.002 5.002 0 0 0-1.9-1l-1.8-.4v-1.7h-2.2v1.7l-1.8.4a7.503 7.503 0 0 0-2 1 5.902 5.902 0 0 0-1.3 1.8 4.801 4.801 0 0 0-.6 2.4 5.3 5.3 0 0 0 .6 2.6 4.6 4.6 0 0 0 1.4 1.7c.61.463 1.283.834 2 1.1l.5.2 1.2.5v5.9a2.099 2.099 0 0 1-1.8-.9 4 4 0 0 1-.7-2.6v-.3h-3.6v.3a5.9 5.9 0 0 0 .5 2.7 5.7 5.7 0 0 0 1.3 2.1 7.397 7.397 0 0 0 2.1 1.3c.709.247 1.45.382 2.2.4v1.9h2.1zm.1-10.4c0 .1 0 .1.1.1l.4.2.9.5a2 2 0 0 1 .9 1.9 2.4 2.4 0 0 1-.8 2.1 2.6 2.6 0 0 1-1.6.7l.1-5.5zm-2.3-4.5h-.3a1.899 1.899 0 0 1-.9-.5l-.6-.7a2.902 2.902 0 0 1-.2-.9c0-.9.2-1.5.7-1.8a2.3 2.3 0 0 1 1.4-.6v4.7l-.1-.2zM13.915 79.7h-3.9a.9.9 0 0 0-1 1v7.1a6 6 0 0 0 6 6h14.8a6 6 0 0 0 6-6v-7.1a.9.9 0 0 0-1-1h-2.3l1.4-17.8a5 5 0 0 0-.8-3.2l-8.7-14.6a4.7 4.7 0 0 0-6-1.8 4.6 4.6 0 0 0-2.1 5.9l4 8.6a.3.3 0 0 1 0 .4c0 .1-.1.2-.3.2h-.4l-9.6-10.6 1.5-15.3a4.8 4.8 0 0 0-4.3-5.1 4.7 4.7 0 0 0-5 4.1l-2.2 19.9a6 6 0 0 0 1.1 3.9l10.9 15.1a10.8 10.8 0 0 1 2.1 7.1l-.2 3.2zm19.9 8.1a4 4 0 0 1-4 4h-14.8a4 4 0 0 1-4-4v-6.1h22.8v6.1zm-20.1-19.5l-11-15.2a3.7 3.7 0 0 1-.7-2.5l2.2-19.9a2.7 2.7 0 0 1 2.9-2.3 2.8 2.8 0 0 1 2.4 2.9l-1.5 15.8c.013.262.12.51.3.7l9.8 10.8a2.4 2.4 0 0 0 2.1.8 2.5 2.5 0 0 0 1.9-1.2 2.7 2.7 0 0 0 0-2.3l-4-8.5a2.6 2.6 0 0 1 1.2-3.3 2.4 2.4 0 0 1 3.3 1l8.8 14.6a2.9 2.9 0 0 1 .5 2l-1.4 18h-14.6l.2-3a13.1 13.1 0 0 0-2.4-8.4zm78.2-13.9a6.4 6.4 0 0 0 1.1-4l-2.2-19.9a4.5 4.5 0 0 0-5.1-4 4.7 4.7 0 0 0-4.2 5l1.5 15.3-9.6 10.5h-.4c-.2 0-.3-.1-.3-.2a.3.3 0 0 1 0-.4l4.1-8.6a4.7 4.7 0 0 0-2.2-5.9 4.7 4.7 0 0 0-6 1.8l-8.7 14.6a5.4 5.4 0 0 0-.8 3.3l1.4 17.8h-2.3a.9.9 0 0 0-1 1v7.1a6 6 0 0 0 6 6h14.8a6 6 0 0 0 6-6v-7.1a.9.9 0 0 0-1-1h-3.9l-.2-3.1a10.9 10.9 0 0 1 2.1-7.2l10.9-15zm-9.9 33.4a4 4 0 0 1-4 4h-14.8a4 4 0 0 1-4-4v-6.1h22.8v6.1zm-5.1-11.1l.2 3h-14.6l-1.4-17.9a3 3 0 0 1 .5-2.1l8.8-14.6a2.401 2.401 0 0 1 3.3-1 2.5 2.5 0 0 1 1.2 3.2l-4 8.6a2.7 2.7 0 0 0 0 2.3 2.501 2.501 0 0 0 1.9 1.2 2.4 2.4 0 0 0 2.1-.8l9.8-10.8a1.1 1.1 0 0 0 .3-.7l-1.5-15.8a2.8 2.8 0 0 1 2.5-2.9 2.6 2.6 0 0 1 2.8 2.3l2.2 19.9a4.1 4.1 0 0 1-.7 2.6l-11 15.1a13.1 13.1 0 0 0-2.4 8.4z"></path></symbol><symbol id="svg-icon-alert" viewBox="0 0 32 32"><title>Alert Icon</title><desc>Icon of an exclaimation mark</desc><path d="M13.46 22.79L12.4 0h7.2l-1.01 22.79h-5.13zM19.22 32h-6.33v-5.9h6.33V32z"></path></symbol><symbol id="svg-icon-pause" viewBox="0 0 448 512"><path fill="#333333" d="M144 479H48c-26.5 0-48-21.5-48-48V79c0-26.5 21.5-48 48-48h96c26.5 0 48 21.5 48 48v352c0 26.5-21.5 48-48 48zm304-48V79c0-26.5-21.5-48-48-48h-96c-26.5 0-48 21.5-48 48v352c0 26.5 21.5 48 48 48h96c26.5 0 48-21.5 48-48z"></path></symbol><symbol id="svg-icon-play" viewBox="0 0 448 512"><path fill="#333333" d="M424.4 214.7L72.4 6.6C43.8-10.3 0 6.1 0 47.9V464c0 37.5 40.7 60.1 72.4 41.3l352-208c31.4-18.5 31.5-64.1 0-82.6z"></path></symbol><symbol id="svg-idea" viewBox="0 0 64 57"><title>Idea Icon</title><desc>Icon of a bright light bulb</desc><path d="M24.2 51.7v3.2c0 .8.7 1.5 1.5 1.5h11.9c.8 0 1.5-.7 1.5-1.5v-3.8c0-3.7 1.3-7.4 2.5-10 .5-1.2 1.2-2.3 2-3.3 1.8-2.5 2.9-5.5 2.9-8.7 0-8.7-7.6-15.7-16.5-14.8-7 .8-12.6 6.6-13.1 13.6-.3 3.7.9 7.2 2.9 10 .7 1 1.4 2.1 1.9 3.2 1.2 2.6 2.5 6.4 2.5 10.1v.5zm12.9-1.8c0 .1-.1.2-.2.2H26.4c-.1 0-.2-.1-.2-.2 0-.6-.1-1.2-.2-1.8 0 0 0-.1.1-.1h11.1s.1 0 .1.1c-.1.6-.2 1.2-.2 1.8zm-10.6 4.2v-1.8c0-.1 0-.1.1-.1H37c.1 0 .1 0 .1.1v1.8c0 .1 0 .1-.1.1H26.6c-.1 0-.1-.1-.1-.1zm15.8-17.9c-.1.2-.3.4-.4.6-.7 1-1.4 1.9-1.9 3-.3.6-.6 1.4-.9 2.2-.5 1.2-.9 2.5-1.3 3.9 0 .1-.1.1-.1.1h-12c-.1 0-.1 0-.1-.1-.4-1.4-.8-2.7-1.3-3.9-.3-.8-.6-1.5-.9-2.2-.5-1.1-1.2-2.1-1.9-3-.1-.2-.3-.4-.4-.6-1.7-2.5-2.5-5.7-2-9.1.8-5.4 5-9.7 10.4-10.6 8-1.4 15 4.8 15 12.6-.1 2.6-.9 5-2.2 7.1z"></path><path d="M40.7 28.9c-.6 0-1-.5-1-1-.1-5.4-5.2-6.7-5.2-6.8-.6-.1-.9-.7-.7-1.3.1-.6.7-.9 1.3-.7 2.3.6 6.7 3.2 6.8 8.7-.2.6-.6 1.1-1.2 1.1zm16 14.9c-.2 0-.4-.1-.6-.2l-8.6-5.5c-.5-.3-.7-1.1-.4-1.6.3-.5 1.1-.7 1.6-.4l8.6 5.5c.5.3.7 1.1.4 1.6-.2.5-.6.6-1 .6zm-8.5-24.2c-.4 0-.8-.2-1-.5-.3-.5-.2-1.3.4-1.6l8.6-5.5c.5-.3 1.3-.2 1.6.4.3.5.2 1.3-.4 1.6l-8.6 5.5c-.2.1-.4.1-.6.1zm13.9 10H50.5c-.6 0-1.2-.5-1.2-1.2s.5-1.2 1.2-1.2H62c.6 0 1.2.5 1.2 1.2s-.5 1.2-1.1 1.2zM6.6 43.8c-.4 0-.8-.2-1-.5-.3-.5-.2-1.3.4-1.6l8.6-5.5c.5-.3 1.3-.2 1.6.4.3.6.2 1.3-.4 1.6l-8.6 5.5c-.2.1-.4.1-.6.1zm8.6-24.2c-.2 0-.4-.1-.6-.2L6 13.9c-.5-.3-.7-1.1-.4-1.6.3-.5 1.1-.7 1.6-.4l8.6 5.5c.5.3.7 1.1.4 1.6-.3.4-.7.6-1 .6zM12.8 29H1.7c-.6 0-1.2-.5-1.2-1.2s.5-1.2 1.2-1.2h11.1c.6 0 1.2.5 1.2 1.2s-.6 1.2-1.2 1.2zm25.7-16.3c-.2 0-.3 0-.5-.1-.6-.3-.8-1-.6-1.5l4.4-9.4c.3-.6 1-.8 1.5-.6.6.3.8 1 .6 1.5L39.5 12c-.2.5-.6.7-1 .7zm-13.1 0c-.4 0-.8-.2-1-.7l-4.7-9.9c-.3-.6 0-1.3.5-1.5.6-.3 1.3 0 1.5.5l4.7 9.9c.3.6 0 1.3-.5 1.5-.2.2-.4.2-.5.2z"></path></symbol><symbol id="svg-key" viewBox="0 0 64 64"><title>Key Icon</title><desc>Icon of a key</desc><path d="M52.44 17.865a4.5 4.5 0 1 0-6.363-6.364 4.5 4.5 0 0 0 6.364 6.364z" stroke="#000000" stroke-width="2px" stroke-miterlimit="10"></path><path d="M34 41.3h-6.4v6.4h-6.4v6.4h-6.4v6.4L12.1 63H1V52l27.1-27c-2.3-6.3-.9-13.7 4.2-18.8 7-7 18.4-7 25.4 0 5.2 5.2 6.6 12.8 4 19.3-.9 2.2-2.2 4.3-4 6.1-5 5-12.2 6.4-18.5 4.3L34 41.3z" stroke="#000000" stroke-width="2px" stroke-miterlimit="10"></path><path d="M27.6 32.5l2.6-2.6.3-.3M6 54l18.1-18" stroke="#000000" stroke-width="2px" stroke-miterlimit="10" stroke-linecap="round"></path></symbol><symbol id="svg-lock" viewBox="0 0 64 64"><title>Lock Icon</title><desc>Icon of a padlock</desc><path d="M49.8 25.6h-1.4v-9.2C48.4 7.3 41 0 32 0S15.6 7.3 15.6 16.4v9.2h-1.4c-2.4 0-4.3 1.9-4.3 4.3v29.9c0 2.4 1.9 4.3 4.3 4.3h35.6c2.4 0 4.3-1.9 4.3-4.3V29.9c-.1-2.4-2-4.3-4.3-4.3zm-31.3-9.2c0-7.5 6.1-13.5 13.5-13.5S45.5 9 45.5 16.4v9.2h-4.3v-9.2c0-5.1-4.1-9.2-9.2-9.2s-9.2 4.1-9.2 9.2v9.2h-4.3v-9.2zm19.9 9.2H25.6v-9.2c0-3.5 2.9-6.4 6.4-6.4s6.4 2.9 6.4 6.4v9.2zm12.8 34.1c0 .8-.6 1.4-1.4 1.4H14.2c-.8 0-1.4-.6-1.4-1.4V29.9c0-.8.6-1.4 1.4-1.4h35.4c.8 0 1.4.6 1.4 1.4v29.8zM32 36.3c-3.1 0-5.7 2.6-5.7 5.7 0 2.6 1.8 4.9 4.3 5.5V52c0 .8.6 1.4 1.4 1.4.8 0 1.4-.6 1.4-1.4v-4.5c2.4-.6 4.3-2.9 4.3-5.5 0-3.2-2.6-5.7-5.7-5.7zm0 8.5c-1.6 0-2.8-1.3-2.8-2.8s1.3-2.8 2.8-2.8c1.6 0 2.8 1.3 2.8 2.8s-1.2 2.8-2.8 2.8z"></path></symbol><symbol id="svg-mail" viewBox="0 0 48 34"><title>Mail Icon</title><desc>Icon of an envelope</desc><path d="M45 .1H3c-1.7 0-3 1.3-3 3V31c0 1.7 1.3 3 3 3h42c1.7 0 3-1.3 3-3V3.1c0-1.7-1.3-3-3-3zM2 3.5L15.5 17 2 30.5v-27zm28.4 12.8L24 22.6l-6.4-6.4L3.4 2.1h41.2L30.4 16.3zm-13.5 2.1l6.4 6.4c.2.2.5.3.7.3.2 0 .5-.1.7-.3l6.4-6.4 13.5 13.5H3.4l13.5-13.5zM32.5 17L46 3.5v27.1L32.5 17z"></path></symbol><symbol id="svg-mobile-banking" viewBox="0 0 508 508"><title>Mobile Banking Icon</title><desc>Icon of a mobile phone with a dollar sign in a speech bubble</desc><path d="M138.6 458.6h32.9c7.8 0 14.1-6.3 14.1-14.1s-6.3-14.1-14.1-14.1h-32.9c-7.8 0-14.1 6.3-14.1 14.1s6.3 14.1 14.1 14.1zM206 61.4c0-7.8-6.3-14.1-14.1-14.1h-73.8c-7.8 0-14.1 6.3-14.1 14.1s6.3 14.1 14.1 14.1h73.8c7.8.1 14.1-6.3 14.1-14.1z"></path><path d="M465.7 85H310.1V42.3c0-23.3-19-42.3-42.3-42.3H42.3C19 0 0 19 0 42.3v423.3C0 489 19 508 42.3 508h225.4c23.3 0 42.3-19 42.3-42.3V315.9h155.6c23.3 0 42.3-19 42.3-42.3V127.3C508 104 489 85 465.7 85zM281.8 465.7c0 7.8-6.3 14.1-14.1 14.1H42.3c-7.8 0-14.1-6.3-14.1-14.1v-55.4h253.6v55.4zm0-83.6H28.2V274.7h47.1c7.8 0 14.1-6.3 14.1-14.1s-6.3-14.1-14.1-14.1H28.2v-46.1h78.9c7.8 0 14.1-6.3 14.1-14.1s-6.3-14.1-14.1-14.1H28.2V42.3c0-7.8 6.3-14.1 14.1-14.1h225.4c7.8 0 14.1 6.3 14.1 14.1V85h-61.7c-23.3 0-42.3 19-42.3 42.3v146.2c0 21 15.3 38.4 35.4 41.8v31.2c0 5.4 2.9 10.8 8 12.7 8.1 3 12.4.4 14.9-1.6l45.8-36.2v60.7h-.1zm198-108.6c0 7.8-6.3 14.1-14.1 14.1H283.9c-3.2 0-6.3 1.1-8.8 3l-33.7 26.6v-15.6c0-7.8-6.3-14.1-14.1-14.1h-7.2c-7.8 0-14.1-6.3-14.1-14.1V127.3c0-7.8 6.3-14.1 14.1-14.1h245.5c7.8 0 14.1 6.3 14.1 14.1v146.2h.1z"></path><path d="M340.2 170.1h26.6c7.8 0 14.1-6.3 14.1-14.1s-6.3-14.1-14.1-14.1H357v-2.5c0-7.8-6.3-14.1-14.1-14.1s-14.1 6.3-14.1 14.1v4.6c-13.9 4.8-23.9 17.8-23.9 33.3 0 19.5 15.9 35.4 35.5 35.4h5.2c4 0 7.2 3.2 7.2 7.2s-3.2 7.2-7.2 7.2H319c-7.8 0-14.1 6.3-14.1 14.1s6.3 14.1 14.1 14.1h9.8v2.5c0 7.8 6.3 14.1 14.1 14.1s14.1-6.3 14.1-14.1v-4.6c13.9-4.8 23.9-17.8 23.9-33.3 0-19.5-15.9-35.4-35.5-35.4h-5.2c-4 0-7.2-3.2-7.2-7.2s3.3-7.2 7.2-7.2z"></path></symbol><symbol id="svg-money-in-home" viewBox="0 0 14 14"><title>Money in Home Icon</title><desc>Icon of a dollar sign inside of a house</desc><path fill-rule="evenodd" clip-rule="evenodd" d="M6.66.133a.5.5 0 0 1 .68 0l6.5 6A.5.5 0 0 1 13.5 7H12v6.5a.5.5 0 0 1-.5.5h-9a.5.5 0 0 1-.5-.5V7H.5a.5.5 0 0 1-.34-.867l6.5-6zM1.78 6H2.5a.5.5 0 0 1 .5.5V13h8V6.5a.5.5 0 0 1 .5-.5h.721L7 1.18 1.779 6z"></path><path fill-rule="evenodd" clip-rule="evenodd" d="M6.5 7a.5.5 0 0 0 0 1h1a1.5 1.5 0 0 1 0 3H6a.5.5 0 0 1 0-1h1.5a.5.5 0 0 0 0-1h-1a1.5 1.5 0 0 1 0-3H8a.5.5 0 0 1 0 1H6.5z"></path><path fill-rule="evenodd" clip-rule="evenodd" d="M7 5a.5.5 0 0 1 .5.5v1a.5.5 0 0 1-1 0v-1A.5.5 0 0 1 7 5zM7 10a.5.5 0 0 1 .5.5v1a.5.5 0 0 1-1 0v-1A.5.5 0 0 1 7 10z"></path></symbol><symbol id="svg-phone" viewBox="0 0 90 90"><title>Phone Icon</title><desc>Icon of a phone handset</desc><path d="M35.8 22.154l-11.005-19.2a5.866 5.866 0 0 0-6.242-2.84L9.199 1.967a8.207 8.207 0 0 0-6.125 5.099c-7.599 19.775-.796 45.005 16.931 62.785l.145.145c17.778 17.725 43.009 24.528 62.783 16.928a8.209 8.209 0 0 0 5.099-6.125l1.855-9.354a5.872 5.872 0 0 0-2.842-6.242L67.845 54.2a5.887 5.887 0 0 0-7.07.938l-1.754 1.75-8.464 8.446A42.46 42.46 0 0 1 34.75 55.25a42.494 42.494 0 0 1-10.082-15.81c2.239-2.245 7.426-7.442 10.196-10.216a5.888 5.888 0 0 0 .935-7.07zm-4.476 3.539l-6.992 7.004c-5.382 5.393-5.382 5.393-4.91 6.806a47.173 47.173 0 0 0 11.792 19.283 47.173 47.173 0 0 0 19.255 11.783c1.44.48 1.466.453 5.85-3.921l7.989-7.973a.874.874 0 0 1 1.05-.137l19.2 11.005a.873.873 0 0 1 .423.93l-1.855 9.354a3.277 3.277 0 0 1-1.987 2.43c-17.963 6.904-41.054.554-57.456-15.8l-.139-.138C7.19 49.915.838 26.824 7.742 8.859a3.276 3.276 0 0 1 2.43-1.985l9.355-1.855a.877.877 0 0 1 .93.423L31.46 24.64a.878.878 0 0 1-.136 1.052z"></path></symbol><symbol id="svg-planning" viewBox="0 0 88 88"><title>Planning Icon</title><desc>Icon of a compass</desc><path d="M75.1 12.875c-17.166-17.167-45.059-17.167-62.225 0-17.167 17.166-17.167 45.059 0 62.225 17.166 17.167 45.059 17.166 62.225 0 17.166-17.166 17.166-45.059 0-62.225zm-2.828 2.828c15.637 15.638 15.637 40.931 0 56.569-15.638 15.637-40.931 15.637-56.569 0C.065 56.634.066 31.34 15.703 15.703c15.638-15.638 40.93-15.638 56.569 0zm-4.663 4.663c-.209-.217-.636-.209-1.237.088L38.087 34.596c-1.213.603-2.888 2.278-3.49 3.491L20.453 66.372c-.044.075-.055.148-.088.22-.447 1.072.118 1.486 1.26.907L49.91 53.357c1.202-.608 2.84-2.245 3.447-3.448l14.142-28.284c.304-.605.319-1.043.11-1.26z"></path></symbol><symbol id="svg-question" viewBox="0 0 70 70"><path d="M68.2 63.65L52.09 47.54l.31-.31a3.67 3.67 0 0 0 0-5.17c-.57-.57-1.3-.9-2.05-1.02 2.42-4.07 3.73-8.73 3.73-13.51C54.08 12.9 42.18 1 27.54 1 12.91 1 1.01 12.9 1.01 27.54c0 14.63 11.9 26.53 26.53 26.53 4.57 0 9.02-1.2 12.94-3.4.07.83.41 1.64 1.04 2.27a3.67 3.67 0 0 0 5.17 0l.45-.45L63.25 68.6c.68.68 1.58 1.03 2.47 1.03.89 0 1.79-.34 2.47-1.03a3.504 3.504 0 0 0 .01-4.95zM43.41 41.66c-4.05 4.54-9.83 7.15-15.86 7.15-11.73 0-21.27-9.54-21.27-21.27S15.82 6.27 27.54 6.27c11.72 0 21.27 9.54 21.27 21.27 0 5.2-1.92 10.21-5.4 14.12z" fill="#FFFFFF"></path></symbol><symbol id="svg-reload" viewBox="0 0 512 512"><title>Reload Icon</title><desc>Icon of two arrows pointing head to tail in a circle</desc><path d="M440.65 12.57l4 82.77A247.16 247.16 0 0 0 255.83 8C134.73 8 33.91 94.92 12.29 209.82A12 12 0 0 0 24.09 224h49.05a12 12 0 0 0 11.67-9.26 175.91 175.91 0 0 1 317-56.94l-101.46-4.86a12 12 0 0 0-12.57 12v47.41a12 12 0 0 0 12 12H500a12 12 0 0 0 12-12V12a12 12 0 0 0-12-12h-47.37a12 12 0 0 0-11.98 12.57zM255.83 432a175.61 175.61 0 0 1-146-77.8l101.8 4.87a12 12 0 0 0 12.57-12v-47.4a12 12 0 0 0-12-12H12a12 12 0 0 0-12 12V500a12 12 0 0 0 12 12h47.35a12 12 0 0 0 12-12.6l-4.15-82.57A247.17 247.17 0 0 0 255.83 504c121.11 0 221.93-86.92 243.55-201.82a12 12 0 0 0-11.8-14.18h-49.05a12 12 0 0 0-11.67 9.26A175.86 175.86 0 0 1 255.83 432z"></path></symbol><symbol id="svg-search" viewBox="0 0 19 19"><title id="svg-search-title">Search Icon</title><desc id="svg-search-description">Icon of a magnifying glass</desc><style>.st0{fill-rule:evenodd;clip-rule:evenodd}</style><path class="st0" d="M7.5 14.1C3.9 14.1 1 11.2 1 7.5S3.9 1 7.5 1 14 3.9 14 7.5s-2.8 6.6-6.5 6.6zm0-.9c3.1 0 5.6-2.5 5.6-5.6 0-3.1-2.5-5.6-5.6-5.6-3.1 0-5.6 2.5-5.6 5.6 0 3 2.5 5.6 5.6 5.6zm5.1-.7c-.2.2-.2.5-.1.7l4.7 4.7c.2.2.4.2.6 0l.1-.1c.2-.2.2-.4 0-.6l-4.7-4.7c-.2-.2-.4-.2-.6 0z" fill="#FFC425"></path><path d="M12.5 13.2l.2-.2-.2.2zm4.7 4.7l-.2.2.2-.2zm.7-.7l.2-.2-.2.2zm-4.7-4.7l-.2.2.2-.2zM.8 7.5c0 3.8 3 6.8 6.8 6.8v-.5c-3.5 0-6.3-2.8-6.3-6.3H.8zM7.5.8C3.7.8.7 3.8.7 7.6h.5c0-3.5 2.8-6.3 6.3-6.3V.8zm6.8 6.7c0-3.8-3-6.8-6.8-6.8v.5c3.5 0 6.3 2.8 6.3 6.3h.5zm-6.8 6.8c3.8 0 6.8-3 6.8-6.8h-.5c0 3.5-2.8 6.3-6.3 6.3v.5zm5.4-6.8c0 3-2.4 5.4-5.4 5.4v.5c3.2 0 5.9-2.6 5.9-5.9h-.5zM7.5 2.2c3 0 5.4 2.4 5.4 5.4h.5c0-3.2-2.6-5.9-5.9-5.9v.5zM2.2 7.5c0-3 2.4-5.4 5.4-5.4v-.4c-3.2 0-5.9 2.6-5.9 5.9h.5v-.1zm5.3 5.4c-3 0-5.4-2.4-5.4-5.4h-.4c0 3.2 2.6 5.9 5.9 5.9v-.5zm5.2-.1l-.3-.4-.1.1.4.3zm0 .2c-.1-.1-.1-.2 0-.2l-.4-.4c-.3.3-.3.7 0 .9l.4-.3zm4.7 4.7L12.7 13l-.4.4 4.7 4.7.4-.4zm.2 0c-.1.1-.2.1-.2 0l-.4.4c.3.3.7.3.9 0l-.3-.4zm.1-.1l.3.4.1-.1-.4-.3zm0-.2c.1.1.1.2 0 .2l.4.4c.3-.3.3-.7 0-.9l-.4.3zM13 12.7l4.7 4.7.4-.4-4.7-4.7-.4.4zm-.2 0c.1-.1.2-.1.2 0l.4-.4c-.3-.3-.7-.3-.9 0l.3.4z"></path></symbol><symbol id="svg-social-facebook" viewBox="0 0 32 32"><title>Facebook Icon</title><desc>Icon of the Facebook logo</desc><path d="M22 5.15v3.67h-2.18c-1.71 0-2.03.82-2.03 2v2.63h4.07l-.54 4.11h-3.53V28.1h-4.25V17.56H10v-4.11h3.54v-3.03c0-3.51 2.15-5.43 5.29-5.43 1.5 0 2.8.11 3.17.16z"></path></symbol><symbol id="svg-social-linkedin" viewBox="0 0 430.117 430.117"><title>LinkedIn Icon</title><desc>Icon of the LinkedIn Logo</desc><path d="M430.117 261.543V420.56h-92.188V272.193c0-37.271-13.334-62.707-46.703-62.707-25.473 0-40.632 17.142-47.301 33.724-2.432 5.928-3.058 14.179-3.058 22.477V420.56h-92.219s1.242-251.285 0-277.32h92.21v39.309c-.187.294-.43.611-.606.896h.606v-.896c12.251-18.869 34.13-45.824 83.102-45.824 60.673-.001 106.157 39.636 106.157 124.818zM52.183 9.558C20.635 9.558 0 30.251 0 57.463c0 26.619 20.038 47.94 50.959 47.94h.616c32.159 0 52.159-21.317 52.159-47.94-.606-27.212-20-47.905-51.551-47.905zM5.477 420.56h92.184V143.24H5.477v277.32z"></path></symbol><symbol id="svg-x" viewBox="0 0 15 15"><title>X</title><desc>X Symbol, typically used to close a menu</desc><path d="M.222 13.364L12.95.636l1.06 1.06-12.726 12.73z"></path><path d="M1.414 1l12.728 12.728-1.06 1.06L.352 2.061z"></path></symbol><symbol id="svg-ONB-Favicon" viewBox="0 0 512 512"><path fill="#FFFFFF" d="M0 0h512v512H0z"></path><path d="M29 0h452.211v85.053H29V0z" fill="#FFC425"></path><path d="M29.842 128h452.211v255.158H29.842V128z" fill="#00539B"></path><path d="M29 426.105h452.211V512H29v-85.895z" fill="#FFC425"></path></symbol><symbol id="svg-safari-pinned-tab" viewBox="0 0 512.000000 512.000000"><path d="M29 42.5V85h452l.1-4.8V1.7C481 .1 469.6 0 255 0H29v42.5zM30 137v246h452V128H30v9zM29 469v43h226c180.1 0 226-.3 226.1-1.3v-77.9l-.1-6.7H29V469z"></path></symbol></svg>