<svg xmlns:xlink="http://www.w3.org/1999/xlink" xmlns="http://www.w3.org/2000/svg" class="icon" width="20" height="20"><defs><symbol id="svg-lock" viewBox="0 0 64 64"><title>Lock Icon</title><desc>Icon of a padlock</desc><path d="M49.8 25.6h-1.4v-9.2C48.4 7.3 41 0 32 0S15.6 7.3 15.6 16.4v9.2h-1.4c-2.4 0-4.3 1.9-4.3 4.3v29.9c0 2.4 1.9 4.3 4.3 4.3h35.6c2.4 0 4.3-1.9 4.3-4.3V29.9c-.1-2.4-2-4.3-4.3-4.3zm-31.3-9.2c0-7.5 6.1-13.5 13.5-13.5S45.5 9 45.5 16.4v9.2h-4.3v-9.2c0-5.1-4.1-9.2-9.2-9.2s-9.2 4.1-9.2 9.2v9.2h-4.3v-9.2zm19.9 9.2H25.6v-9.2c0-3.5 2.9-6.4 6.4-6.4s6.4 2.9 6.4 6.4v9.2zm12.8 34.1c0 .8-.6 1.4-1.4 1.4H14.2c-.8 0-1.4-.6-1.4-1.4V29.9c0-.8.6-1.4 1.4-1.4h35.4c.8 0 1.4.6 1.4 1.4v29.8zM32 36.3c-3.1 0-5.7 2.6-5.7 5.7 0 2.6 1.8 4.9 4.3 5.5V52c0 .8.6 1.4 1.4 1.4.8 0 1.4-.6 1.4-1.4v-4.5c2.4-.6 4.3-2.9 4.3-5.5 0-3.2-2.6-5.7-5.7-5.7zm0 8.5c-1.6 0-2.8-1.3-2.8-2.8s1.3-2.8 2.8-2.8c1.6 0 2.8 1.3 2.8 2.8s-1.2 2.8-2.8 2.8z"></path></symbol></defs>
						<use xlink:href="#svg-lock" fill="#00539B"></use>
					</svg>