<svg version="1.1" xmlns="http://www.w3.org/2000/svg" xmlns:xlink="http://www.w3.org/1999/xlink" x="0px" y="0px" viewBox="0 0 24.1 23.8" style="enable-background:new 0 0 24.1 23.8;" xml:space="preserve" width="32"  height="32" >
<path d="M9.6,14.6V7.7l6.3,3.4L9.6,14.6z M23.5,5.6c-0.1-0.5-0.4-0.9-0.8-1.3c-0.4-0.4-0.8-0.6-1.3-0.7C19.5,3.1,12,3.1,12,3.1
	c-3.1,0-6.3,0.1-9.4,0.5C2.1,3.7,1.6,4,1.3,4.4C0.9,4.7,0.6,5.2,0.5,5.6C0.2,7.4,0,9.3,0,11.1c0,1.8,0.2,3.7,0.5,5.5
	c0.1,0.5,0.4,0.9,0.8,1.3c0.4,0.4,0.8,0.6,1.3,0.7c1.9,0.5,9.4,0.5,9.4,0.5c3.1,0,6.3-0.1,9.4-0.5c0.5-0.1,1-0.4,1.3-0.7
	c0.4-0.4,0.6-0.8,0.8-1.3c0.3-1.8,0.5-3.7,0.5-5.5C24,9.3,23.9,7.5,23.5,5.6L23.5,5.6z" fill="#FFFFFF"></path>
</svg>