<svg version="1.1" xmlns="http://www.w3.org/2000/svg" xmlns:xlink="http://www.w3.org/1999/xlink" x="0px" y="0px" viewBox="0 0 24.5 23.8" style="enable-background:new 0 0 24.5 23.8;" xml:space="preserve" width="32"  height="32" >
<path d="M8.6,23.4h5.1v-8.6c0-0.5,0-0.9,0.2-1.3c0.4-0.9,1.2-1.9,2.6-1.9c1.9,0,2.6,1.4,2.6,3.5v8.3h5.1v-8.9c0-4.8-2.5-7-5.9-7
	c-2.8,0-4,1.6-4.7,2.6h0V7.9H8.6C8.6,9.4,8.6,23.4,8.6,23.4L8.6,23.4z M3.1,5.8C4.9,5.8,6,4.6,6,3.2c0-1.5-1.1-2.7-2.9-2.7
	c-1.8,0-2.9,1.2-2.9,2.7C0.3,4.6,1.4,5.8,3.1,5.8L3.1,5.8L3.1,5.8z M5.7,23.4V7.9H0.6v15.5H5.7z" fill="#FFFFFF"></path>
</svg>