<svg xmlns:xlink="http://www.w3.org/1999/xlink" xmlns="http://www.w3.org/2000/svg" class="icon" width="16" height="16" aria-labelledby="search-title"><defs><symbol id="svg-search" viewBox="0 0 19 19"><title id="svg-search-title">Search Icon</title><desc id="svg-search-description">Icon of a magnifying glass</desc><style>.st0{fill-rule:evenodd;clip-rule:evenodd}</style><path class="st0" d="M7.5 14.1C3.9 14.1 1 11.2 1 7.5S3.9 1 7.5 1 14 3.9 14 7.5s-2.8 6.6-6.5 6.6zm0-.9c3.1 0 5.6-2.5 5.6-5.6 0-3.1-2.5-5.6-5.6-5.6-3.1 0-5.6 2.5-5.6 5.6 0 3 2.5 5.6 5.6 5.6zm5.1-.7c-.2.2-.2.5-.1.7l4.7 4.7c.2.2.4.2.6 0l.1-.1c.2-.2.2-.4 0-.6l-4.7-4.7c-.2-.2-.4-.2-.6 0z" fill="#FFC425"></path><path d="M12.5 13.2l.2-.2-.2.2zm4.7 4.7l-.2.2.2-.2zm.7-.7l.2-.2-.2.2zm-4.7-4.7l-.2.2.2-.2zM.8 7.5c0 3.8 3 6.8 6.8 6.8v-.5c-3.5 0-6.3-2.8-6.3-6.3H.8zM7.5.8C3.7.8.7 3.8.7 7.6h.5c0-3.5 2.8-6.3 6.3-6.3V.8zm6.8 6.7c0-3.8-3-6.8-6.8-6.8v.5c3.5 0 6.3 2.8 6.3 6.3h.5zm-6.8 6.8c3.8 0 6.8-3 6.8-6.8h-.5c0 3.5-2.8 6.3-6.3 6.3v.5zm5.4-6.8c0 3-2.4 5.4-5.4 5.4v.5c3.2 0 5.9-2.6 5.9-5.9h-.5zM7.5 2.2c3 0 5.4 2.4 5.4 5.4h.5c0-3.2-2.6-5.9-5.9-5.9v.5zM2.2 7.5c0-3 2.4-5.4 5.4-5.4v-.4c-3.2 0-5.9 2.6-5.9 5.9h.5v-.1zm5.3 5.4c-3 0-5.4-2.4-5.4-5.4h-.4c0 3.2 2.6 5.9 5.9 5.9v-.5zm5.2-.1l-.3-.4-.1.1.4.3zm0 .2c-.1-.1-.1-.2 0-.2l-.4-.4c-.3.3-.3.7 0 .9l.4-.3zm4.7 4.7L12.7 13l-.4.4 4.7 4.7.4-.4zm.2 0c-.1.1-.2.1-.2 0l-.4.4c.3.3.7.3.9 0l-.3-.4zm.1-.1l.3.4.1-.1-.4-.3zm0-.2c.1.1.1.2 0 .2l.4.4c.3-.3.3-.7 0-.9l-.4.3zM13 12.7l4.7 4.7.4-.4-4.7-4.7-.4.4zm-.2 0c.1-.1.2-.1.2 0l.4-.4c-.3-.3-.7-.3-.9 0l.3.4z"></path></symbol></defs>
						<title id="search-title">Search</title>
						<use xlink:href="#svg-search" fill="#1B1F22"></use>
					</svg>